<?xml version="1.0" encoding="UTF-8" standalone="no"?><!DOCTYPE svg PUBLIC "-//W3C//DTD SVG 1.1//EN" "http://www.w3.org/Graphics/SVG/1.1/DTD/svg11.dtd"><svg width="100%" height="100%" viewBox="0 0 150 173" version="1.1" xmlns="http://www.w3.org/2000/svg" xmlns:xlink="http://www.w3.org/1999/xlink" xml:space="preserve" xmlns:serif="http://www.serif.com/" style="fill-rule:evenodd;clip-rule:evenodd;stroke-linejoin:round;stroke-miterlimit:1.41421;"><path d="M149.167,129.183l-74.584,43.06l-74.583,-43.06l0,-86.122l74.583,-43.061l74.584,43.061l0,86.122Z" style="fill:#4d4d4d;fill-rule:nonzero;"/><clipPath id="_clip1"><rect x="-27" y="61.734" width="104.368" height="52.559"/></clipPath><g clip-path="url(#_clip1)"><path d="M42.244,114.49l7.509,-19.456l7.66,19.858l-15.017,0l-0.152,-0.402Zm3.712,-29.301l-7.474,19.364l-15.983,-42.22l14.641,0l8.816,22.856Z" style="fill:#fff;"/></g><clipPath id="_clip2"><rect x="22.093" y="61.707" width="104.368" height="52.559"/></clipPath><g clip-path="url(#_clip2)"><path d="M42.048,114.866l15.017,0l19.897,-52.56l-14.642,0l-20.272,52.56" style="fill:#fff;"/></g><clipPath id="_clip3"><rect x="22.093" y="61.734" width="104.368" height="52.559"/></clipPath><g clip-path="url(#_clip3)"><path d="M94.231,114.892l-13.515,0l0,-52.559l13.515,0l0,20.648l11.691,0l0.002,10.512l-11.693,0l0,21.399Zm32.287,0l-13.502,0l-0.007,-33.94l-0.006,0l0,-18.619l13.515,0l0,52.559Z" style="fill:#fff;fill-rule:nonzero;"/></g></svg>