<?xml version="1.0" standalone="no"?>
<!DOCTYPE svg PUBLIC "-//W3C//DTD SVG 20010904//EN"
 "http://www.w3.org/TR/2001/REC-SVG-20010904/DTD/svg10.dtd">
<svg version="1.0" xmlns="http://www.w3.org/2000/svg"
 width="692.000000pt" height="692.000000pt" viewBox="0 0 692.000000 692.000000"
 preserveAspectRatio="xMidYMid meet">
<metadata>
Created by potrace 1.11, written by Peter Selinger 2001-2013
</metadata>
<g transform="translate(0.000000,692.000000) scale(0.100000,-0.100000)"
fill="#000000" stroke="none">
<path d="M1950 6060 l-1485 -858 0 -1727 0 -1727 1480 -855 c814 -471 1487
-856 1495 -857 9 0 685 386 1503 858 l1487 859 0 1722 0 1722 -1487 859 c-818
472 -1492 860 -1498 861 -5 1 -678 -384 -1495 -857z m171 -2091 l176 -457
-144 -373 c-80 -206 -147 -377 -151 -381 -7 -6 -632 1636 -632 1660 0 10 61
12 287 10 l288 -3 176 -456z m1409 449 c-1 -7 -176 -474 -389 -1038 l-389
-1025 -296 -3 c-183 -1 -296 1 -296 7 0 11 776 2025 791 2053 9 17 31 18 294
18 222 0 285 -3 285 -12z m698 -405 l2 -413 233 -2 232 -3 0 -205 0 -205 -232
-3 -233 -2 0 -415 0 -415 -270 0 -270 0 0 1033 c0 569 3 1037 7 1040 4 4 124
6 267 5 l261 -3 3 -412z m1290 -625 l2 -1038 -270 0 -270 0 0 1033 c0 569 3
1037 7 1040 4 4 124 6 267 5 l261 -3 3 -1037z"/>
</g>
</svg>
